<?xml version="1.0" encoding="UTF-8" standalone="no"?>
<!-- Created with Inkscape (http://www.inkscape.org/) -->

<svg
   xmlns:dc="http://purl.org/dc/elements/1.1/"
   xmlns:cc="http://creativecommons.org/ns#"
   xmlns:rdf="http://www.w3.org/1999/02/22-rdf-syntax-ns#"
   xmlns:svg="http://www.w3.org/2000/svg"
   xmlns="http://www.w3.org/2000/svg"
   xmlns:sodipodi="http://sodipodi.sourceforge.net/DTD/sodipodi-0.dtd"
   xmlns:inkscape="http://www.inkscape.org/namespaces/inkscape"
   version="1.1"
   id="svg815"
   width="1423.348"
   height="470.67612"
   viewBox="0 0 1423.348 470.67612"
   sodipodi:docname="Eggo-logo-black.svg"
   inkscape:version="0.92.4 (5da689c313, 2019-01-14)">
  <metadata
     id="metadata821">
    <rdf:RDF>
      <cc:Work
         rdf:about="">
        <dc:format>image/svg+xml</dc:format>
        <dc:type
           rdf:resource="http://purl.org/dc/dcmitype/StillImage" />
        <dc:title></dc:title>
      </cc:Work>
    </rdf:RDF>
  </metadata>
  <defs
     id="defs819" />
  <sodipodi:namedview
     pagecolor="#ffffff"
     bordercolor="#666666"
     borderopacity="1"
     objecttolerance="10"
     gridtolerance="10"
     guidetolerance="10"
     inkscape:pageopacity="0"
     inkscape:pageshadow="2"
     inkscape:window-width="1600"
     inkscape:window-height="837"
     id="namedview817"
     showgrid="false"
     inkscape:zoom="0.35355339"
     inkscape:cx="692.1727"
     inkscape:cy="73.394632"
     inkscape:window-x="-8"
     inkscape:window-y="-8"
     inkscape:window-maximized="1"
     inkscape:current-layer="layer1"
     fit-margin-top="-2.7755576e-17"
     fit-margin-left="0"
     fit-margin-right="0"
     fit-margin-bottom="0">
    <sodipodi:guide
       position="45.82048,1897.0031"
       orientation="0,2268"
       id="guide839"
       inkscape:locked="false" />
    <sodipodi:guide
       position="1501.8205,349.00313"
       orientation="-4032,0"
       id="guide841"
       inkscape:locked="false" />
    <sodipodi:guide
       position="1073.8205,2405.0031"
       orientation="0,-2268"
       id="guide843"
       inkscape:locked="false" />
    <sodipodi:guide
       position="45.82048,2377.0031"
       orientation="4032,0"
       id="guide845"
       inkscape:locked="false" />
  </sodipodi:namedview>
  <g
     inkscape:groupmode="layer"
     id="layer1"
     inkscape:label="Layer 1"
     style="display:inline"
     transform="translate(-294.17951,-3310.327)">
    <path
       style="fill:#e6e6e6;fill-opacity:1;stroke:none;stroke-width:1px;stroke-linecap:butt;stroke-linejoin:miter;stroke-opacity:1"
       d="m 286.45508,0.015625 c -48.47714,0.28647656 -96.58263,4.4082569 -144.19336,13.628906 -11.64037,12.6772 -14.00282,43.467128 14.60742,50.173828 51.95299,-10.129 107.69238,-16.498837 166.92383,-19.398437 l 51.00391,14.371094 c 25.16746,-11.8318 3.84861,-59.0397785 -39.7461,-57.8300785 -16.23715,-0.709875 -32.43666,-1.04080469 -48.5957,-0.9453125 z"
       transform="translate(294.17951,3310.327)"
       id="path1379"
       inkscape:connector-curvature="0" />
    <path
       style="fill:#e6e6e6;fill-opacity:1;stroke:none;stroke-width:1px;stroke-linecap:butt;stroke-linejoin:miter;stroke-opacity:1"
       d="m 375.17134,3336.9433 c -92.72584,114.7607 -120.33566,260.8181 -4.96281,296.4327 75.52668,1.7691 145.56545,-10.4977 214.4036,-25.8352 62.15671,-57.7722 56.35321,-75.1396 -27.87389,-43.5365 -83.38063,11.1077 -195.63353,33.923 -216.73824,-14.8579 -1.86564,-12.3433 -8.82159,-24.8122 3.1997,-43.9552 87.13435,1.9289 161.37159,-5.7581 240.81167,-13.5781 26.47826,-16.4734 25.21374,-29.7112 16.59566,-42.9541 -82.85985,2.0235 -208.09106,6.9744 -248.5796,6.0709 5.7998,-33.5941 38.23732,-61.4632 43.96069,-88.142 z"
       id="path1381"
       inkscape:connector-curvature="0"
       sodipodi:nodetypes="ccccccccccc" />
    <path
       style="opacity:0.95999995;fill:#e6e6e6;fill-opacity:1;stroke:none;stroke-width:1px;stroke-linecap:butt;stroke-linejoin:miter;stroke-opacity:1"
       d="m 910.30786,3311.4776 c -37.28244,1.8449 -64.14885,5.7355 -125.9936,27.0278 -19.85063,6.8343 -44.14759,25.4547 -72.76385,46.4657 -29.23055,26.5894 -47.26814,58.0083 -58.32598,88.4673 -22.53442,62.0715 2.28398,127.9408 67.30464,153.6154 91.77756,21.9992 232.64614,-16.9374 245.56174,-32.2181 0,0 66.35829,-42.8543 20.6476,-113.3836 -11.947,-7.225 -79.68318,-24.6001 -91.88797,-26.0664 -18.70637,-2.2474 -96.00138,-5.0722 -132.07635,9.2449 -7.85455,15.2646 -10.90008,29.7792 -2.36764,42.4876 55.20118,3.7179 69.92273,-24.1057 191.64716,20.8019 0.4041,9.4898 12.9527,15.2768 -30.31856,38.083 20.82926,-9.7774 -88.80232,42.2678 -209.94383,14.2062 -14.7634,-14.7653 -36.50905,-10.7856 -35.69694,-67.3656 12.98547,-41.0344 14.87305,-82.3445 103.98813,-127.9994 113.47145,-66.1712 206.7874,-8.3352 130.22545,-73.3667 z"
       id="path1383"
       inkscape:connector-curvature="0"
       sodipodi:nodetypes="cscscccscccccccc" />
    <path
       style="display:inline;fill:#e6e6e6;fill-opacity:1;stroke:none;stroke-width:0.93732285;stroke-linecap:butt;stroke-linejoin:miter;stroke-miterlimit:4;stroke-dasharray:none;stroke-opacity:1"
       d="m 1263.476,3328.5394 c -46.9706,2.3608 -82.6413,-6.9488 -185.3508,69.4363 -83.61009,77.0314 -81.61869,192.6653 8.3409,228.6318 85.5797,20.765 156.946,-5.9814 228.9904,-30.4603 9.7659,-4.0433 69.4863,-50.5582 19.2688,-107.0869 -7.2813,-12.4634 -142.6755,-42.4621 -208.8445,-15.8576 -7.3263,14.4177 -10.1683,28.1262 -2.2134,40.1275 51.4746,3.5041 154.6552,-5.4516 178.7083,19.6211 0,0 12.0765,14.4262 -28.2771,35.9711 19.4245,-9.2369 -82.8137,39.9309 -195.7744,13.4443 -13.7649,-13.943 -34.0433,-10.1816 -33.2786,-63.6182 12.1143,-38.7563 8.9548,-76.3457 96.9857,-120.9015 115.6817,-66.5977 192.6113,-8.0875 121.4447,-69.3076 z"
       id="path1383-6"
       inkscape:connector-curvature="0"
       sodipodi:nodetypes="ccccccccccccc" />
    <text
       xml:space="preserve"
       style="font-style:normal;font-variant:normal;font-weight:normal;font-stretch:normal;font-size:132.50421143px;line-height:1.25;font-family:Constantia;-inkscape-font-specification:'Constantia, Normal';font-variant-ligatures:normal;font-variant-caps:normal;font-variant-numeric:normal;font-feature-settings:normal;text-align:start;letter-spacing:0px;word-spacing:0px;writing-mode:lr-tb;text-anchor:start;fill:#e6e6e6;fill-opacity:1;stroke:none;stroke-width:0.29705986;stroke-miterlimit:4;stroke-dasharray:none;"
       x="287.29282"
       y="3921.1335"
       id="text1469"
       transform="scale(1.0374895,0.96386518)"><tspan
         sodipodi:role="line"
         id="tspan1467"
         x="287.29282"
         y="3921.1335"
         style="font-style:normal;font-variant:normal;font-weight:normal;font-stretch:normal;line-height:2;font-family:Corbel;-inkscape-font-specification:Corbel;letter-spacing:35.61138916px;word-spacing:10.27111244px;fill:#e6e6e6;fill-opacity:1;stroke:none;stroke-width:0.29705986;stroke-miterlimit:4;stroke-dasharray:none;"
         dx="0">e x c l u s i v e</tspan></text>
    <path
       style="fill:#e6e6e6;fill-opacity:1;stroke:none;stroke-width:1.04104567px;stroke-linecap:butt;stroke-linejoin:miter;stroke-opacity:1"
       d="m 1573.995,3329.7887 c -129.695,7.7039 -243.253,134.0867 -189.1853,214.2626 0,0 26.669,87.7335 123.6497,90.8721 0,0 210.7285,-0.4408 209.0583,-141.6633 -0.06,-16.9069 1.7986,-127.1562 -143.5227,-163.4714 z m 5.0547,44.9919 c 101.3408,16.1043 101.2138,87.3036 101.2649,98.3908 1.3166,92.678 -133.1127,121.1869 -155.2155,118.2503 -62.7846,6.5447 -105.6491,-42.6399 -105.6491,-42.6399 -46.8556,-66.5875 68.2619,-169.018 159.5997,-174.0012 z"
       id="path1905"
       inkscape:connector-curvature="0"
       sodipodi:nodetypes="cccccccccc" />
  </g>
</svg>
